<svg width="1219" height="508" viewBox="0 0 1219 508" fill="none" xmlns="http://www.w3.org/2000/svg">
<g clip-path="url(#clip0)">
<path d="M552.55 127.85C542.65 127.85 534.15 126.15 527.05 122.75C519.95 119.25 514.1 114.7 509.5 109.1C505 103.4 501.7 97.3 499.6 90.8C497.5 84.2 496.45 77.8 496.45 71.6V68.3C496.45 61.5 497.55 54.8 499.75 48.2C501.95 41.5 505.3 35.45 509.8 30.05C514.4 24.65 520.15 20.35 527.05 17.15C534.05 13.85 542.3 12.2 551.8 12.2C561.7 12.2 570.4 14.05 577.9 17.75C585.5 21.45 591.55 26.6 596.05 33.2C600.65 39.8 603.4 47.45 604.3 56.15H579.55C578.45 49.65 575.4 44.55 570.4 40.85C565.4 37.05 559.2 35.15 551.8 35.15C542 35.15 534.45 38.4 529.15 44.9C523.95 51.3 521.35 59.7 521.35 70.1C521.35 77 522.55 83.1 524.95 88.4C527.35 93.6 530.85 97.65 535.45 100.55C540.15 103.45 545.85 104.9 552.55 104.9C560.15 104.9 566.55 103.05 571.75 99.35C577.05 95.65 580.25 90.55 581.35 84.05H605.95C605.05 92.15 602.35 99.5 597.85 106.1C593.45 112.7 587.4 118 579.7 122C572.1 125.9 563.05 127.85 552.55 127.85ZM637.386 123.2L612.186 42.8H636.336L654.486 104.45H657.486L672.486 42.8H695.286L672.336 131.6C670.636 138 668.336 143.1 665.436 146.9C662.636 150.7 658.836 153.4 654.036 155C649.336 156.7 643.386 157.55 636.186 157.55H621.486V137.15H638.586C642.386 137.15 645.336 136.4 647.436 134.9C649.636 133.4 651.236 130.7 652.236 126.8L652.986 123.2H637.386ZM758.482 127.7C750.882 127.7 744.332 125.9 738.832 122.3C733.332 118.7 729.382 113.5 726.982 106.7V125H707.932V15.5H731.932V55.85C734.832 50.75 738.682 46.9 743.482 44.3C748.282 41.7 753.732 40.4 759.832 40.4C767.332 40.4 773.832 42.25 779.332 45.95C784.832 49.55 789.082 54.5 792.082 60.8C795.182 67 796.732 74.1 796.732 82.1V85.4C796.732 93.4 795.182 100.6 792.082 107C788.982 113.3 784.582 118.35 778.882 122.15C773.182 125.85 766.382 127.7 758.482 127.7ZM752.182 107.6C758.282 107.6 763.182 105.4 766.882 101C770.682 96.5 772.582 90.75 772.582 83.75C772.582 76.75 770.682 71.1 766.882 66.8C763.182 62.5 758.282 60.35 752.182 60.35C748.482 60.35 745.032 61.2 741.832 62.9C738.732 64.6 736.182 67.05 734.182 70.25C732.282 73.45 731.332 77.25 731.332 81.65V87.2C731.332 91.5 732.332 95.2 734.332 98.3C736.432 101.3 739.082 103.6 742.282 105.2C745.482 106.8 748.782 107.6 752.182 107.6ZM851.051 127.85C844.051 127.85 837.851 126.65 832.451 124.25C827.151 121.85 822.701 118.65 819.101 114.65C815.501 110.55 812.801 106 811.001 101C809.201 95.9 808.301 90.7 808.301 85.4V82.4C808.301 77 809.201 71.75 811.001 66.65C812.801 61.55 815.501 57 819.101 53C822.701 49 827.051 45.85 832.151 43.55C837.351 41.15 843.351 39.95 850.151 39.95C858.951 39.95 866.351 41.95 872.351 45.95C878.451 49.85 883.101 55 886.301 61.4C889.501 67.8 891.101 74.7 891.101 82.1V90.2H830.951C831.751 95.8 833.751 100.25 836.951 103.55C840.251 106.75 844.951 108.35 851.051 108.35C855.351 108.35 858.901 107.55 861.701 105.95C864.601 104.25 866.551 102.1 867.551 99.5H889.601C887.801 107.9 883.451 114.75 876.551 120.05C869.751 125.25 861.251 127.85 851.051 127.85ZM850.151 59.45C844.951 59.45 840.701 60.95 837.401 63.95C834.201 66.85 832.151 71.05 831.251 76.55H868.151C867.351 71.05 865.401 66.85 862.301 63.95C859.301 60.95 855.251 59.45 850.151 59.45ZM907.005 125V42.8H926.055V70.7C926.955 61.4 929.805 54.25 934.605 49.25C939.505 44.25 946.155 41.75 954.555 41.75H957.705V62.45H951.705C945.005 62.45 939.855 64.25 936.255 67.85C932.755 71.45 931.005 76.55 931.005 83.15V125H907.005ZM491.95 314L528.1 204.5H567.85L605.35 314H579.85L571 286.85H525.25L516.55 314H491.95ZM531.7 266.45H564.25L550.6 224.6H545.05L531.7 266.45ZM618.284 314V231.8H637.334V252.8C640.634 237.1 649.884 229.25 665.084 229.25H666.134C675.634 229.25 682.934 232.4 688.034 238.7C693.134 244.9 695.684 254.35 695.684 267.05V314H671.684V265.7C671.684 261.3 670.384 257.7 667.784 254.9C665.184 252.1 661.684 250.7 657.284 250.7C652.784 250.7 649.134 252.15 646.334 255.05C643.634 257.85 642.284 261.55 642.284 266.15V314H618.284ZM739.536 316.1C730.636 316.1 723.436 313.8 717.936 309.2C712.536 304.6 709.836 298.1 709.836 289.7C709.836 283.7 711.386 278.8 714.486 275C717.586 271.1 721.936 268.25 727.536 266.45C733.136 264.55 739.586 263.6 746.886 263.6H761.736V263.3C761.736 254.9 757.536 250.7 749.136 250.7C746.936 250.7 744.036 250.8 740.436 251C736.836 251.1 733.086 251.25 729.186 251.45C725.386 251.55 721.986 251.7 718.986 251.9V231.65C722.486 231.35 726.786 231.1 731.886 230.9C736.986 230.6 741.686 230.45 745.986 230.45C758.586 230.45 768.186 233.15 774.786 238.55C781.486 243.85 784.836 252.2 784.836 263.6V314H765.786V298.55C763.986 304.25 760.886 308.6 756.486 311.6C752.086 314.6 746.436 316.1 739.536 316.1ZM746.736 299.45C750.636 299.45 754.036 298.35 756.936 296.15C759.836 293.95 761.436 289.75 761.736 283.55V276.95H746.736C742.536 276.95 739.286 278 736.986 280.1C734.786 282.2 733.686 284.95 733.686 288.35C733.686 291.65 734.786 294.35 736.986 296.45C739.286 298.45 742.536 299.45 746.736 299.45ZM806.248 314V222.2H796.498V204.5H830.398V314H806.248ZM867.513 312.2L842.313 231.8H866.463L884.613 293.45H887.613L902.613 231.8H925.413L902.463 320.6C900.763 327 898.463 332.1 895.563 335.9C892.763 339.7 888.963 342.4 884.163 344C879.463 345.7 873.513 346.55 866.313 346.55H851.613V326.15H868.713C872.513 326.15 875.463 325.4 877.563 323.9C879.763 322.4 881.363 319.7 882.363 315.8L883.113 312.2H867.513ZM976.874 315.05C968.574 315.05 961.874 314.05 956.774 312.05C951.674 309.95 947.924 306.5 945.524 301.7C943.224 296.8 942.074 290.2 942.074 281.9V249.35H929.624V231.8H942.074V209.6H964.424V231.8H988.424V249.35H964.424V282.8C964.424 286.7 965.424 289.7 967.424 291.8C969.524 293.8 972.474 294.8 976.274 294.8H988.424V315.05H976.874ZM1017.76 223.7C1013.26 223.7 1009.91 222.55 1007.71 220.25C1005.61 217.85 1004.56 214.85 1004.56 211.25C1004.56 207.55 1005.61 204.55 1007.71 202.25C1009.91 199.85 1013.26 198.65 1017.76 198.65C1022.26 198.65 1025.56 199.85 1027.66 202.25C1029.86 204.55 1030.96 207.55 1030.96 211.25C1030.96 214.85 1029.86 217.85 1027.66 220.25C1025.56 222.55 1022.26 223.7 1017.76 223.7ZM1008.46 314V249.5H997.513V231.8H1032.46V314H1008.46ZM1091.56 316.85C1084.46 316.85 1078.26 315.7 1072.96 313.4C1067.76 311 1063.41 307.8 1059.91 303.8C1056.41 299.8 1053.81 295.3 1052.11 290.3C1050.41 285.2 1049.56 279.95 1049.56 274.55V271.7C1049.56 264.2 1051.11 257.2 1054.21 250.7C1057.41 244.2 1062.11 238.95 1068.31 234.95C1074.61 230.95 1082.31 228.95 1091.41 228.95C1098.81 228.95 1105.36 230.4 1111.06 233.3C1116.76 236.1 1121.31 240.05 1124.71 245.15C1128.11 250.25 1130.01 256.1 1130.41 262.7H1106.86C1106.46 259 1104.96 255.9 1102.36 253.4C1099.76 250.8 1096.11 249.5 1091.41 249.5C1085.31 249.5 1080.81 251.7 1077.91 256.1C1075.01 260.4 1073.56 266.1 1073.56 273.2C1073.56 279.9 1074.91 285.45 1077.61 289.85C1080.41 294.15 1085.06 296.3 1091.56 296.3C1096.36 296.3 1100.11 295.05 1102.81 292.55C1105.51 290.05 1107.11 286.75 1107.61 282.65H1131.01C1130.61 289.45 1128.66 295.45 1125.16 300.65C1121.76 305.75 1117.11 309.75 1111.21 312.65C1105.41 315.45 1098.86 316.85 1091.56 316.85ZM1177.56 316.55C1165.86 316.55 1156.71 314.15 1150.11 309.35C1143.51 304.55 1140.01 297.8 1139.61 289.1H1160.91C1161.21 291.7 1162.76 294.05 1165.56 296.15C1168.36 298.15 1172.51 299.15 1178.01 299.15C1182.11 299.15 1185.56 298.45 1188.36 297.05C1191.16 295.65 1192.56 293.55 1192.56 290.75C1192.56 288.35 1191.51 286.45 1189.41 285.05C1187.31 283.55 1183.56 282.5 1178.16 281.9L1171.71 281.3C1161.81 280.2 1154.36 277.45 1149.36 273.05C1144.46 268.65 1142.01 262.9 1142.01 255.8C1142.01 250 1143.46 245.15 1146.36 241.25C1149.36 237.35 1153.41 234.4 1158.51 232.4C1163.61 230.4 1169.46 229.4 1176.06 229.4C1186.66 229.4 1195.16 231.75 1201.56 236.45C1208.06 241.05 1211.51 247.75 1211.91 256.55H1190.61C1190.21 253.95 1188.76 251.7 1186.26 249.8C1183.86 247.9 1180.36 246.95 1175.76 246.95C1172.06 246.95 1169.11 247.65 1166.91 249.05C1164.71 250.45 1163.61 252.35 1163.61 254.75C1163.61 257.05 1164.56 258.8 1166.46 260C1168.36 261.2 1171.46 262.05 1175.76 262.55L1182.21 263.15C1192.21 264.25 1200.01 267.1 1205.61 271.7C1211.31 276.2 1214.16 282.2 1214.16 289.7C1214.16 298 1210.86 304.55 1204.26 309.35C1197.66 314.15 1188.76 316.55 1177.56 316.55ZM502.3 503V393.5H526.9V481.4H569.8V503H502.3ZM607.993 505.1C599.093 505.1 591.893 502.8 586.393 498.2C580.993 493.6 578.293 487.1 578.293 478.7C578.293 472.7 579.843 467.8 582.943 464C586.043 460.1 590.393 457.25 595.993 455.45C601.593 453.55 608.043 452.6 615.343 452.6H630.193V452.3C630.193 443.9 625.993 439.7 617.593 439.7C615.393 439.7 612.493 439.8 608.893 440C605.293 440.1 601.543 440.25 597.643 440.45C593.843 440.55 590.443 440.7 587.443 440.9V420.65C590.943 420.35 595.243 420.1 600.343 419.9C605.443 419.6 610.143 419.45 614.443 419.45C627.043 419.45 636.643 422.15 643.243 427.55C649.943 432.85 653.293 441.2 653.293 452.6V503H634.243V487.55C632.443 493.25 629.343 497.6 624.943 500.6C620.543 503.6 614.893 505.1 607.993 505.1ZM615.193 488.45C619.093 488.45 622.493 487.35 625.393 485.15C628.293 482.95 629.893 478.75 630.193 472.55V465.95H615.193C610.993 465.95 607.743 467 605.443 469.1C603.243 471.2 602.143 473.95 602.143 477.35C602.143 480.65 603.243 483.35 605.443 485.45C607.743 487.45 610.993 488.45 615.193 488.45ZM724.205 505.7C716.605 505.7 710.055 503.9 704.555 500.3C699.055 496.7 695.105 491.5 692.705 484.7V503H673.655V393.5H697.655V433.85C700.555 428.75 704.405 424.9 709.205 422.3C714.005 419.7 719.455 418.4 725.555 418.4C733.055 418.4 739.555 420.25 745.055 423.95C750.555 427.55 754.805 432.5 757.805 438.8C760.905 445 762.455 452.1 762.455 460.1V463.4C762.455 471.4 760.905 478.6 757.805 485C754.705 491.3 750.305 496.35 744.605 500.15C738.905 503.85 732.105 505.7 724.205 505.7ZM717.905 485.6C724.005 485.6 728.905 483.4 732.605 479C736.405 474.5 738.305 468.75 738.305 461.75C738.305 454.75 736.405 449.1 732.605 444.8C728.905 440.5 724.005 438.35 717.905 438.35C714.205 438.35 710.755 439.2 707.555 440.9C704.455 442.6 701.905 445.05 699.905 448.25C698.005 451.45 697.055 455.25 697.055 459.65V465.2C697.055 469.5 698.055 473.2 700.055 476.3C702.155 479.3 704.805 481.6 708.005 483.2C711.205 484.8 714.505 485.6 717.905 485.6Z" fill="#1F1F1F"/>
<path d="M65.343 323.616C101.053 209.099 135.126 151.88 219.176 62.4336L166.142 31.1973C128.226 146.442 91.5944 201.577 12.309 292.38L65.343 323.616Z" fill="#C4C4C4"/>
<path d="M211.504 442.824C132.841 402.837 99.241 368.785 57.5391 288.859L14.0172 332.381C92.4845 374.339 123.524 410.445 167.982 486.346L211.504 442.824Z" fill="#C4C4C4"/>
<path d="M225.86 491.094C269.337 411.251 305.165 377.189 387.93 335.002L345.233 290.67C299.76 370.309 261.934 401.766 183.163 446.762L225.86 491.094Z" fill="#FF7629"/>
<path d="M399 305C371.452 205.203 371.774 148.301 399 46L337 46C363.005 147.29 359.397 203.766 337 305L399 305Z" fill="#C4C4C4"/>
<path d="M175.643 60.2537C260.218 146.147 294.865 203.423 334.586 320.195L387.097 288.087C302.912 199.897 271.31 141.346 228.154 28.1457L175.643 60.2537Z" fill="#FF7629"/>
<path d="M211 70C271.495 42.4519 305.988 42.7741 368 70L368 8.00002C306.6 34.0054 272.366 30.3966 211 8L211 70Z" fill="#FF7629"/>
<path d="M33 68C93.4949 40.4519 127.988 40.7741 190 68L190 6.00002C128.6 32.0054 94.3656 28.3966 33 6L33 68Z" fill="#C4C4C4"/>
<circle cx="198.5" cy="37.5" r="32.5" fill="#595959"/>
<ellipse cx="366.5" cy="39" rx="32.5" ry="33" fill="#595959"/>
<path d="M66 300C38.4519 202.129 38.7741 146.326 66 46L4.00002 46C30.0054 145.334 26.3966 200.721 4 300L66 300Z" fill="#C4C4C4"/>
<circle cx="33.5" cy="34.5" r="32.5" fill="#595959"/>
<ellipse cx="33" cy="310.5" rx="33" ry="32.5" fill="#595959"/>
<circle cx="366.5" cy="310.5" r="32.5" fill="#595959"/>
<ellipse cx="199" cy="472" rx="33" ry="32" fill="#595959"/>
</g>
<defs>
<clipPath id="clip0">
<rect width="1219" height="508" fill="white"/>
</clipPath>
</defs>
</svg>
