<svg width="399" height="504" viewBox="0 0 399 504" fill="none" xmlns="http://www.w3.org/2000/svg">
<path d="M65.343 323.616C101.053 209.099 135.126 151.88 219.176 62.4336L166.142 31.1973C128.226 146.442 91.5944 201.577 12.309 292.38L65.343 323.616Z" fill="#C4C4C4"/>
<path d="M211.504 442.824C132.841 402.837 99.241 368.785 57.5391 288.859L14.0172 332.381C92.4845 374.339 123.524 410.445 167.982 486.346L211.504 442.824Z" fill="#C4C4C4"/>
<path d="M225.86 491.094C269.337 411.251 305.165 377.189 387.93 335.002L345.233 290.67C299.76 370.309 261.934 401.766 183.163 446.762L225.86 491.094Z" fill="#FF7629"/>
<path d="M399 305C371.452 205.203 371.774 148.301 399 46L337 46C363.005 147.29 359.397 203.766 337 305L399 305Z" fill="#C4C4C4"/>
<path d="M175.643 60.2537C260.218 146.147 294.865 203.423 334.586 320.195L387.097 288.087C302.912 199.897 271.31 141.346 228.154 28.1457L175.643 60.2537Z" fill="#FF7629"/>
<path d="M211 70C271.495 42.4519 305.988 42.7741 368 70L368 8.00002C306.6 34.0054 272.366 30.3966 211 8L211 70Z" fill="#FF7629"/>
<path d="M33 68C93.4949 40.4519 127.988 40.7741 190 68L190 6.00002C128.6 32.0054 94.3656 28.3966 33 6L33 68Z" fill="#C4C4C4"/>
<circle cx="198.5" cy="37.5" r="32.5" fill="#595959"/>
<ellipse cx="366.5" cy="39" rx="32.5" ry="33" fill="#595959"/>
<path d="M66 300C38.4519 202.129 38.7741 146.326 66 46L4.00002 46C30.0054 145.334 26.3966 200.721 4 300L66 300Z" fill="#C4C4C4"/>
<circle cx="33.5" cy="34.5" r="32.5" fill="#595959"/>
<ellipse cx="33" cy="310.5" rx="33" ry="32.5" fill="#595959"/>
<circle cx="366.5" cy="310.5" r="32.5" fill="#595959"/>
<ellipse cx="199" cy="472" rx="33" ry="32" fill="#595959"/>
</svg>
